<svg xmlns="http://www.w3.org/2000/svg" xmlns:xlink="http://www.w3.org/1999/xlink" viewBox="0 0 330.78 148.56"><defs><style>.cls-1{fill:none;}.cls-2{isolation:isolate;}.cls-3{mix-blend-mode:multiply;}.cls-4{fill:#fff;}.cls-5{fill:#214d66;}.cls-6{clip-path:url(#clip-path);}.cls-7{clip-path:url(#clip-path-2);}.cls-8{fill:#22506a;}.cls-9{clip-path:url(#clip-path-3);}.cls-10{clip-path:url(#clip-path-4);}.cls-11{clip-path:url(#clip-path-5);}.cls-12{fill:#3c8cbb;}.cls-13{fill:#eaeaea;}.cls-14{fill:gray;}.cls-15{clip-path:url(#clip-path-6);}.cls-16{fill:#e1e1e1;}.cls-17{fill:#919191;}.cls-18{clip-path:url(#clip-path-7);}.cls-19{clip-path:url(#clip-path-8);}.cls-20{fill:#949494;}.cls-21{fill:#999;}.cls-22{clip-path:url(#clip-path-9);}.cls-23{clip-path:url(#clip-path-10);}.cls-24{clip-path:url(#clip-path-11);}.cls-25{clip-path:url(#clip-path-12);}.cls-26{fill:#858585;}.cls-27{clip-path:url(#clip-path-13);}.cls-28{clip-path:url(#clip-path-14);}.cls-29{fill:#8a8a8a;}.cls-30{fill:#8f8f8f;}.cls-31{clip-path:url(#clip-path-15);}.cls-32{clip-path:url(#clip-path-16);}.cls-33{clip-path:url(#clip-path-17);}.cls-34{clip-path:url(#clip-path-18);}.cls-35{clip-path:url(#clip-path-19);}.cls-36{clip-path:url(#clip-path-20);}.cls-37{clip-path:url(#clip-path-21);}.cls-38{fill:#23536e;}.cls-39{fill:#245672;}.cls-40{clip-path:url(#clip-path-22);}.cls-41{fill:#214e68;}</style><clipPath id="clip-path"><path class="cls-1" d="M143.16,148.11l-12.68.19,1.21,0a73.81,73.81,0,0,0,61.07-36.06l12.68-.18A73.58,73.58,0,0,1,160,145.89a72.76,72.76,0,0,1-15.62,2.19C144,148.1,143.56,148.11,143.16,148.11Z"/></clipPath><clipPath id="clip-path-2"><path class="cls-1" d="M98.07,141.11l12.68-.19a72,72,0,0,0,32.41,7.19l-12.68.19A72.11,72.11,0,0,1,98.07,141.11Z"/></clipPath><clipPath id="clip-path-3"><path class="cls-1" d="M98.07,141.11q-3.31-1.61-6.5-3.54l12.68-.19a73.37,73.37,0,0,0,6.5,3.54l-8.77.13-2,0h-2Z"/></clipPath><clipPath id="clip-path-4"><path class="cls-1" d="M91.57,137.57a74.13,74.13,0,0,1-24.24-24.19L80,113.2a74.1,74.1,0,0,0,24.24,24.18C100.45,137.44,95.24,138.57,91.57,137.57Z"/></clipPath><clipPath id="clip-path-5"><path class="cls-1" d="M143.16,148.36l-12.68.19a72.51,72.51,0,0,1-39-10.77,74.28,74.28,0,0,1-24.37-24.33l12.69-.18a74.22,74.22,0,0,0,24.36,24.32A72.51,72.51,0,0,0,143.16,148.36Z"/></clipPath><clipPath id="clip-path-6"><path class="cls-1" d="M147.49,96.85l-4.84-1.29a25.8,25.8,0,0,0,19-11.79l4.85,1.29A25.85,25.85,0,0,1,147.49,96.85Z"/></clipPath><clipPath id="clip-path-7"><path class="cls-1" d="M146.73,45.87l4.85,1.29a25.52,25.52,0,0,1,15.47,11.71l-4.85-1.29A25.49,25.49,0,0,0,146.73,45.87Z"/></clipPath><clipPath id="clip-path-8"><path class="cls-1" d="M146.73,45.87l4.85,1.29a24.7,24.7,0,0,0-3.08-.62l-4.85-1.29A24.7,24.7,0,0,1,146.73,45.87Z"/></clipPath><clipPath id="clip-path-9"><path class="cls-1" d="M146.86,45.38l4.84,1.29a27.21,27.21,0,0,0-3.42-.67l-4.84-1.29A27.93,27.93,0,0,1,146.86,45.38Z"/></clipPath><clipPath id="clip-path-10"><path class="cls-1" d="M136.4,96.08l-4.85-1.29a27.32,27.32,0,0,0,6.5.91h.24L143.14,97h-.24A27.25,27.25,0,0,1,136.4,96.08Z"/></clipPath><clipPath id="clip-path-11"><path class="cls-1" d="M143.91,45.66l-4.85-1.29.51,0,4.84,1.28Z"/></clipPath><clipPath id="clip-path-12"><path class="cls-1" d="M136.4,96.08l-4.85-1.29a26.7,26.7,0,0,1-12-6.88l4.85,1.29A26.65,26.65,0,0,0,136.4,96.08Z"/></clipPath><clipPath id="clip-path-13"><path class="cls-1" d="M136.28,96.57l-4.85-1.29a27.25,27.25,0,0,1-12.25-7L124,89.57A27.25,27.25,0,0,0,136.28,96.57Z"/></clipPath><clipPath id="clip-path-14"><path class="cls-1" d="M120.25,52A27.22,27.22,0,0,1,139,44.87l4.84,1.29a27.2,27.2,0,0,0-18.78,7.12Z"/></clipPath><clipPath id="clip-path-15"><path class="cls-1" d="M119.12,53.07c.37-.37.74-.72,1.13-1.08l4.85,1.29c-.39.36-.77.71-1.13,1.08l-.57-.15-.6-.16-.62-.16-.64-.17-.63-.17-.62-.17-.6-.16Z"/></clipPath><clipPath id="clip-path-16"><path class="cls-1" d="M119.53,87.91A24.24,24.24,0,0,1,112,70.6l4.85,1.28a24.21,24.21,0,0,0,7.54,17.32C122.92,88.82,120.84,88.65,119.53,87.91Z"/></clipPath><clipPath id="clip-path-17"><path class="cls-1" d="M112,70.6a24.36,24.36,0,0,1,7.13-17.53L124,54.36a24.3,24.3,0,0,0-7.13,17.52l-.57-.15-.6-.16-.62-.16-.64-.17-.63-.17-.62-.16-.6-.16Z"/></clipPath><clipPath id="clip-path-18"><path class="cls-1" d="M124,89.57l-4.85-1.29a24.88,24.88,0,0,1-.41-35.56c.36-.38.76-.74,1.15-1.09a27.7,27.7,0,0,1,19.14-7.26l4.85,1.29a27.73,27.73,0,0,0-19.15,7.26c-.39.35-.78.71-1.15,1.08A24.88,24.88,0,0,0,124,89.57Z"/></clipPath><clipPath id="clip-path-19"><path class="cls-1" d="M131.73.44,144.41.25a72.32,72.32,0,0,1,40.4,11.68,78.26,78.26,0,0,1,22.86,23L195,35.06a78.62,78.62,0,0,0-22.86-23A72.25,72.25,0,0,0,131.73.44Z"/></clipPath><clipPath id="clip-path-20"><path class="cls-1" d="M131.73.19,144.41,0l-1.22,0L130.51.22Z"/></clipPath><clipPath id="clip-path-21"><path class="cls-1" d="M131.73.44,144.41.25l-1.21,0a74.42,74.42,0,0,0-13.91,1.78A73.6,73.6,0,0,0,83.05,34.82L70.37,35A73.71,73.71,0,0,1,130.52.47C130.92.45,131.33.44,131.73.44Z"/></clipPath><clipPath id="clip-path-22"><path class="cls-1" d="M83.05,34.82,70.37,35A72.58,72.58,0,0,1,116.56,2,74,74,0,0,1,130.51.22L143.19,0A73.34,73.34,0,0,0,83.05,34.82Z"/></clipPath></defs><title>jAsset 7</title><g class="cls-2"><g id="Layer_2" data-name="Layer 2"><g id="fornt"><g class="cls-3"><path class="cls-4" d="M315,58.74a1.38,1.38,0,0,1-1.39,1.37,1.34,1.34,0,1,1,0-2.68A1.37,1.37,0,0,1,315,58.74Z"/><path class="cls-4" d="M322.91,58.59a1.42,1.42,0,1,1-1.45-1.32A1.39,1.39,0,0,1,322.91,58.59Z"/><path class="cls-4" d="M330.77,58.43a1.38,1.38,0,0,1-1.39,1.37,1.34,1.34,0,1,1-.05-2.68A1.37,1.37,0,0,1,330.77,58.43Z"/></g><g class="cls-2"><polygon class="cls-5" points="205.59 112.02 205.59 112.02 205.59 112.03 205.59 112.02"/><polygon class="cls-5" points="205.59 112.03 192.91 112.21 192.9 112.21 205.59 112.02 205.59 112.03"/></g><g class="cls-2"><g class="cls-2"><g class="cls-6"><g class="cls-2"><path d="M143.16,148.11l-12.68.19,1.21,0a73.45,73.45,0,0,0,15.21-2.09l12.68-.18a73.43,73.43,0,0,1-15.21,2.08c-.4,0-.81,0-1.21,0"/><path d="M159.58,146l-12.68.18.41-.1A73.92,73.92,0,0,0,168,137.41l12.69-.19A73.52,73.52,0,0,1,160,145.89l-.41.11"/><path d="M180.64,137.22l-12.69.19a74.24,74.24,0,0,0,24.81-25.2l12.68-.18a74.19,74.19,0,0,1-24.8,25.19"/></g></g></g><g class="cls-2"><g class="cls-7"><g class="cls-2"><path class="cls-8" d="M143.16,148.11l-12.68.19a72.41,72.41,0,0,1-38.91-10.73l12.68-.19a72.37,72.37,0,0,0,38.91,10.73"/></g></g></g><g class="cls-2"><g class="cls-9"><g class="cls-2"><path class="cls-8" d="M143.16,148.11l-12.68.19a72.41,72.41,0,0,1-38.91-10.73l12.68-.19a72.37,72.37,0,0,0,38.91,10.73"/></g></g></g><g class="cls-2"><g class="cls-10"><g class="cls-2"><path class="cls-8" d="M104.25,137.38l-12.68.19a74.13,74.13,0,0,1-24.24-24.19L80,113.2a74.1,74.1,0,0,0,24.24,24.18"/></g></g></g><g class="cls-2"><g class="cls-11"><g class="cls-2"><path d="M143.16,148.36l-12.68.19a72.51,72.51,0,0,1-39-10.77,74.28,74.28,0,0,1-24.37-24.33l12.69-.18a74.22,74.22,0,0,0,24.36,24.32,72.51,72.51,0,0,0,39,10.77"/></g></g></g><path d="M79.77,113.27a77.7,77.7,0,0,0,24.48,24.11A72.41,72.41,0,0,0,160,145.89,73.58,73.58,0,0,0,205.44,112a72.59,72.59,0,0,1-45.4,34.1,73.8,73.8,0,0,1-15.66,2.21,72.5,72.5,0,0,1-40.25-10.75A74.22,74.22,0,0,1,79.77,113.27Z"/><path class="cls-12" d="M104.25,137.38A74.1,74.1,0,0,1,80,113.2L205.44,112A73.58,73.58,0,0,1,160,145.89a72.41,72.41,0,0,1-55.74-8.51Z"/></g><g class="cls-2"><polygon points="83.18 40.96 70.5 41.14 70.5 38.27 83.19 38.08 83.18 40.96"/><polygon points="83.19 38.08 70.5 38.27 2.42 38.33 15.11 38.14 83.19 38.08"/><polygon class="cls-5" points="15.1 41.02 2.41 41.2 2.42 38.33 15.11 38.14 15.1 41.02"/><polygon class="cls-12" points="15.11 38.14 83.19 38.08 83.18 40.96 15.1 41.02 15.11 38.14"/><polygon class="cls-5" points="83.18 40.96 70.5 41.14 2.41 41.2 15.1 41.02 83.18 40.96"/><polygon points="14.85 41.27 2.17 41.45 2.18 38.07 14.86 37.89 14.85 41.27"/><polygon points="83.42 41.2 70.74 41.38 2.17 41.45 14.85 41.27 83.42 41.2"/><path d="M14.86,37.89l68.56-.06V41.2l-68.57.07ZM83.18,41V38.08l-68.08.06V41L83.18,41"/></g><g class="cls-2"><polygon points="81 104.65 68.32 104.83 68.33 101.96 81.01 101.78 81 104.65"/><polygon points="81.01 101.78 68.33 101.96 0.24 102.02 12.93 101.84 81.01 101.78"/><polygon class="cls-5" points="12.92 104.71 0.24 104.89 0.24 102.02 12.93 101.84 12.92 104.71"/><polygon class="cls-12" points="12.93 101.84 81.01 101.78 81 104.65 12.92 104.71 12.93 101.84"/><polygon class="cls-5" points="81 104.65 68.32 104.83 0.24 104.89 12.92 104.71 81 104.65"/><polygon points="12.68 104.96 0 105.14 0.01 101.77 12.69 101.58 12.68 104.96"/><polygon points="81.24 104.89 68.56 105.08 0 105.14 12.68 104.96 81.24 104.89"/><path d="M12.69,101.58l68.56,0v3.36L12.68,105ZM81,104.65v-2.87l-68.08.06v2.87L81,104.65"/></g><g class="cls-2"><polygon points="274.4 43.45 261.71 43.63 261.53 40.17 274.22 39.99 274.4 43.45"/><polygon class="cls-5" points="274.4 43.45 261.71 43.63 193.63 43.69 206.32 43.51 274.4 43.45"/><polygon points="274.22 39.99 261.53 40.17 193.45 40.24 206.13 40.05 274.22 39.99"/><polygon class="cls-5" points="206.32 43.51 193.63 43.69 193.45 40.24 206.13 40.05 206.32 43.51"/><polygon class="cls-12" points="206.13 40.05 274.22 39.99 274.4 43.45 206.32 43.51 206.13 40.05"/><polygon points="274.66 43.69 261.98 43.87 193.41 43.94 206.09 43.76 274.66 43.69"/><polygon points="206.09 43.76 193.41 43.94 193.2 39.98 205.88 39.8 206.09 43.76"/><path d="M274.44,39.74l.22,3.95-68.57.07-.21-4Zm-68.12,3.77,68.08-.06L274.22,40l-68.09.06.19,3.46"/></g><g class="cls-2"><polygon points="272.09 110.25 259.4 110.44 259.23 106.21 271.92 106.03 272.09 110.25"/><polygon class="cls-5" points="272.09 110.25 259.4 110.44 191.32 110.51 204.01 110.32 272.09 110.25"/><polygon points="271.92 106.03 259.23 106.21 191.15 106.27 203.84 106.09 271.92 106.03"/><polygon class="cls-5" points="204.01 110.32 191.32 110.51 191.15 106.27 203.84 106.09 204.01 110.32"/><polygon class="cls-12" points="203.84 106.09 271.92 106.03 272.09 110.25 204.01 110.32 203.84 106.09"/><polygon points="272.34 110.51 259.66 110.69 191.09 110.76 203.77 110.57 272.34 110.51"/><polygon points="203.77 110.57 191.09 110.76 190.9 106.02 203.59 105.83 203.77 110.57"/><path d="M272.14,105.78l.2,4.73-68.57.06-.19-4.74ZM204,110.32l68.08-.07-.17-4.22-68.08.06.17,4.23"/></g><g class="cls-2"><polygon points="63.71 87.12 51.02 87.3 50.8 86.98 63.49 86.79 63.71 87.12"/><polygon points="63.47 86.33 50.78 86.51 50.91 58.44 63.59 58.25 63.47 86.33"/><polygon points="63.43 92.48 50.75 92.66 50.72 91.22 63.41 91.04 63.43 92.48"/><polygon points="63.59 58.25 50.91 58.44 41.02 58.43 53.71 58.25 63.59 58.25"/><polygon class="cls-13" points="53.71 58.25 63.59 58.25 63.47 86.33 53.64 71.73 53.71 58.25"/><polygon class="cls-14" points="63.47 86.33 50.78 86.51 40.96 71.91 53.64 71.73 63.47 86.33"/><polygon class="cls-14" points="53.64 71.73 40.96 71.91 41.02 58.43 53.71 58.25 53.64 71.73"/><path d="M53.46,58H63.83v.13l-.12,29-.22-.33-10.09-15Zm10,28.33.12-28.07H53.71l-.07,13.48,9.83,14.59"/><polygon points="63.49 86.79 50.8 86.98 40.72 71.99 53.4 71.81 63.49 86.79"/><polygon points="53.4 71.81 40.72 71.99 40.78 58.18 53.47 57.99 53.4 71.81"/><polygon class="cls-14" points="63.43 92.48 50.75 92.66 40.19 92.65 52.87 92.46 63.43 92.48"/><polygon points="63.69 92.72 51 92.9 40.06 92.9 52.75 92.72 63.69 92.72"/><polygon points="63.41 91.04 50.72 91.22 28.5 58.42 41.18 58.23 63.41 91.04"/><polygon class="cls-14" points="52.87 92.46 40.19 92.65 18.1 59.85 30.78 59.67 52.87 92.46"/><polygon points="52.75 92.72 40.06 92.9 17.86 59.93 30.54 59.75 52.75 92.72"/><polygon points="40.53 92.46 27.84 92.65 27.9 79.31 40.59 79.13 40.53 92.46"/><polygon points="41.18 58.23 28.5 58.42 18.11 58.41 30.79 58.23 41.18 58.23"/><polygon class="cls-14" points="30.78 59.67 18.1 59.85 18.11 58.41 30.79 58.23 30.78 59.67"/><polygon class="cls-13" points="30.79 58.23 41.18 58.23 63.41 91.04 63.43 92.48 52.87 92.46 30.78 59.67 30.79 58.23"/><polygon points="40.59 79.13 27.9 79.31 18.08 64.73 30.77 64.55 40.59 79.13"/><path d="M41.31,58,63.65,91l0,1.76H52.75l-22.21-33V58ZM63.43,92.48l0-1.44L41.18,58.24H30.79v1.44L52.87,92.46l10.56,0"/><polygon points="30.54 59.75 17.86 59.93 17.87 58.17 30.55 57.98 30.54 59.75"/><polygon class="cls-13" points="30.64 92.46 30.77 64.55 40.59 79.13 40.53 92.46 30.64 92.46"/><polygon class="cls-14" points="40.53 92.46 27.84 92.65 17.96 92.64 30.64 92.46 40.53 92.46"/><polygon class="cls-14" points="30.64 92.46 17.96 92.64 18.08 64.73 30.77 64.55 30.64 92.46"/><polygon points="30.4 92.58 17.72 92.77 17.84 63.95 30.52 63.76 30.4 92.58"/><path d="M30.4,92.58l.12-28.82L40.83,79.05l-.06,13.66H30.4ZM40.59,79.13,30.77,64.55l-.13,27.91h9.89l.06-13.33"/><polygon points="40.77 92.71 28.09 92.89 17.71 92.89 30.4 92.71 40.77 92.71"/><polygon points="30.4 92.71 17.71 92.89 17.72 92.77 30.4 92.58 30.4 92.71"/></g><g class="cls-2"><g class="cls-2"><g class="cls-15"><g class="cls-2"><path d="M147.49,96.85l-4.84-1.29a27.09,27.09,0,0,0,2.7-.43l4.85,1.28a24.29,24.29,0,0,1-2.71.44"/><path d="M150.2,96.41l-4.85-1.28a26.16,26.16,0,0,0,5.07-1.66l4.85,1.29a25.47,25.47,0,0,1-5.07,1.65"/><path d="M155.27,94.76l-4.85-1.29a25.67,25.67,0,0,0,11.26-9.7l4.85,1.29a25.73,25.73,0,0,1-11.26,9.7"/></g></g></g><path class="cls-16" d="M147.49,96.85l.24-12.1,18.8.31A25.85,25.85,0,0,1,147.49,96.85Z"/><polygon class="cls-14" points="147.49 96.85 142.65 95.56 142.89 83.46 147.73 84.75 147.49 96.85"/><polygon class="cls-17" points="147.73 84.75 142.89 83.46 161.69 83.77 166.53 85.06 147.73 84.75"/><path d="M147,97.41l.27-13.17,20.16.33-.22.38a26.37,26.37,0,0,1-19.93,12.43Zm.75-12.66-.24,12.1a25.85,25.85,0,0,0,19-11.79l-18.8-.31"/><polygon points="146.98 97.41 142.13 96.12 142.4 82.95 147.25 84.24 146.98 97.41"/><polygon points="147.25 84.24 142.4 82.95 162.56 83.28 167.41 84.57 147.25 84.24"/></g><g class="cls-2"><g class="cls-2"><g class="cls-18"><g class="cls-2"><path d="M167.05,58.87l-4.85-1.29a25.49,25.49,0,0,0-15.47-11.71l4.85,1.29a25.52,25.52,0,0,1,15.47,11.71"/></g></g></g><polygon points="148.26 58.56 143.41 57.27 162.2 57.58 167.05 58.87 148.26 58.56"/><polygon class="cls-14" points="148.26 58.56 143.41 57.27 143.65 45.25 148.5 46.54 148.26 58.56"/><g class="cls-2"><g class="cls-19"><g class="cls-2"><path class="cls-20" d="M148.5,46.54l-4.85-1.29c.2,0,.39,0,.58.09l4.85,1.28-.58-.08"/><path class="cls-21" d="M149.08,46.62l-4.85-1.28a23.11,23.11,0,0,1,2.5.53l4.85,1.29c-.82-.22-1.66-.4-2.5-.54"/></g></g></g><path d="M167.7,59l.22.39L147.75,59,148,46l.27,0A26.12,26.12,0,0,1,167.7,59Zm-19.44-.43,18.79.31A25.58,25.58,0,0,0,148.5,46.54l-.24,12"/><path class="cls-16" d="M148.5,46.54a25.58,25.58,0,0,1,18.55,12.33l-18.79-.31Z"/><g class="cls-2"><g class="cls-22"><g class="cls-2"><path d="M148.28,46l-4.84-1.29.86.13,4.85,1.29-.87-.13"/><path d="M149.15,46.13l-4.85-1.29c.87.14,1.72.32,2.56.54l4.84,1.29c-.83-.22-1.69-.4-2.55-.54"/></g></g></g><polygon points="148.01 45.97 143.16 44.68 143.44 44.71 148.28 46 148.01 45.97"/><polygon points="147.75 59.04 142.9 57.75 143.16 44.68 148.01 45.97 147.75 59.04"/></g><g class="cls-2"><g class="cls-2"><g class="cls-23"><g class="cls-2"><path d="M136.4,96.08l-4.85-1.29c.88.23,1.76.42,2.66.57l4.85,1.28a26.15,26.15,0,0,1-2.66-.56"/><path d="M139.06,96.64l-4.85-1.28a27.39,27.39,0,0,0,3.84.34h.24L143.14,97h-.24a27.27,27.27,0,0,1-3.84-.35"/></g></g></g><polygon points="144.41 45.67 139.56 44.39 139.81 44.4 144.65 45.69 144.41 45.67"/><polygon points="143.14 96.99 138.29 95.7 139.31 44.88 144.15 46.16 143.14 96.99"/><g class="cls-2"><g class="cls-24"><g class="cls-2"><path d="M143.91,45.66l-4.85-1.29.51,0,4.84,1.28h-.5"/></g></g></g><g class="cls-2"><g class="cls-25"><g class="cls-2"><path class="cls-26" d="M136.4,96.08l-4.85-1.29a26.7,26.7,0,0,1-12-6.88l4.85,1.29a26.65,26.65,0,0,0,12,6.88"/></g></g></g><g class="cls-2"><g class="cls-27"><g class="cls-2"><path d="M136.28,96.57l-4.85-1.29a27.25,27.25,0,0,1-12.25-7L124,89.57a27.25,27.25,0,0,0,12.25,7"/></g></g></g><g class="cls-2"><g class="cls-28"><g class="cls-2"><path class="cls-26" d="M125.1,53.28,120.25,52a27,27,0,0,1,7.26-4.76l4.85,1.29a26.74,26.74,0,0,0-7.26,4.76"/><path class="cls-29" d="M132.36,48.52l-4.85-1.29a27.87,27.87,0,0,1,5.37-1.75l4.84,1.29a27.32,27.32,0,0,0-5.36,1.75"/><path class="cls-30" d="M137.72,46.77l-4.84-1.29a26.9,26.9,0,0,1,4.91-.6l4.84,1.29a27,27,0,0,0-4.91.6"/><path class="cls-20" d="M142.63,46.17l-4.84-1.29c.41,0,.83,0,1.25,0l4.84,1.29c-.41,0-.83,0-1.25,0"/></g></g></g><g class="cls-2"><g class="cls-31"><g class="cls-2"><path class="cls-26" d="M124.38,89.2l-4.85-1.29a24.35,24.35,0,0,1-.41-34.84c.37-.37.74-.72,1.13-1.08l4.85,1.29c-.39.36-.77.71-1.13,1.08a24.35,24.35,0,0,0,.41,34.84"/></g></g></g><g class="cls-2"><g class="cls-32"><g class="cls-2"><path class="cls-26" d="M124.38,89.2l-4.85-1.29a24.35,24.35,0,0,1-.41-34.84c.37-.37.74-.72,1.13-1.08l4.85,1.29c-.39.36-.77.71-1.13,1.08a24.35,24.35,0,0,0,.41,34.84"/></g></g></g><g class="cls-2"><g class="cls-33"><g class="cls-2"><path class="cls-26" d="M124.38,89.2l-4.85-1.29a24.35,24.35,0,0,1-.41-34.84c.37-.37.74-.72,1.13-1.08l4.85,1.29c-.39.36-.77.71-1.13,1.08a24.35,24.35,0,0,0,.41,34.84"/></g></g></g><path d="M143.91,45.66h.5l.24,0-1,51.79h-.8A27.46,27.46,0,0,1,124,89.57,24.88,24.88,0,0,1,123.61,54c.37-.37.76-.73,1.15-1.08A27.73,27.73,0,0,1,143.91,45.66ZM143.14,97l1-50.83h-.27a27.2,27.2,0,0,0-18.78,7.12c-.39.36-.77.71-1.13,1.08a24.35,24.35,0,0,0,.41,34.84A27,27,0,0,0,142.9,97h.24"/><path class="cls-16" d="M125.1,53.28a27.2,27.2,0,0,1,18.78-7.12h.27l-1,50.83h-.24a27,27,0,0,1-18.52-7.79A24.35,24.35,0,0,1,124,54.36C124.33,54,124.71,53.64,125.1,53.28Z"/><g class="cls-2"><g class="cls-34"><g class="cls-2"><path d="M124,89.57l-4.85-1.29a24.88,24.88,0,0,1-.41-35.56c.36-.38.76-.74,1.15-1.09a27,27,0,0,1,7.39-4.85l4.85,1.28a27.48,27.48,0,0,0-7.4,4.86c-.39.35-.78.71-1.15,1.08A24.88,24.88,0,0,0,124,89.57"/><path d="M132.16,48.06l-4.85-1.28A28.14,28.14,0,0,1,132.77,45l4.85,1.29a28.11,28.11,0,0,0-5.46,1.78"/><path d="M137.62,46.28,132.77,45a28,28,0,0,1,5-.61l4.85,1.29a28,28,0,0,0-5,.61"/><path d="M142.63,45.67l-4.85-1.29c.43,0,.85,0,1.28,0l4.85,1.29c-.43,0-.86,0-1.28,0"/></g></g></g></g><g class="cls-2"><polygon points="254.05 66.7 241.37 66.88 241.24 66.88 253.93 66.69 254.05 66.7"/><polygon points="253.81 66.45 241.13 66.63 241.15 59.63 253.83 59.45 253.81 66.45"/><polygon class="cls-14" points="253.81 66.45 241.13 66.63 215.96 66.65 228.65 66.47 253.81 66.45"/><polygon points="253.93 66.69 241.24 66.88 215.81 66.9 228.5 66.72 253.93 66.69"/><polygon points="253.83 59.45 241.15 59.63 212.39 59.66 225.07 59.48 253.83 59.45"/><polygon class="cls-14" points="228.65 66.47 215.96 66.65 212.39 59.66 225.07 59.48 228.65 66.47"/><path d="M224.86,59.23l29.21,0,0,7.5h-.12l-25.43,0-3.84-7.49Zm28.95,7.22,0-7-28.76,0,3.57,7,25.17,0"/><polygon class="cls-13" points="225.07 59.48 253.83 59.45 253.81 66.45 228.65 66.47 225.07 59.48"/><polygon points="228.5 66.72 215.81 66.9 211.98 59.41 224.66 59.23 228.5 66.72"/></g><g class="cls-2"><polygon points="246.12 93.31 233.43 93.5 233.51 70.07 246.19 69.88 246.12 93.31"/><polygon points="246.19 69.88 233.51 70.07 223.63 70.08 236.31 69.89 246.19 69.88"/><polygon points="236.24 93.62 223.56 93.81 233.43 93.5 246.12 93.31 236.24 93.62"/><polygon class="cls-13" points="236.24 93.62 236.31 69.89 246.19 69.88 246.12 93.31 236.24 93.62"/><polygon class="cls-14" points="236.24 93.62 223.56 93.81 223.63 70.08 236.31 69.89 236.24 93.62"/><path d="M236.07,69.64h.12l10.25,0-.09,23.93L236,93.88Zm10.12.24h-9.88l-.07,23.73,9.88-.31.07-23.43"/><polygon points="236 93.88 223.32 94.07 223.39 69.82 236.07 69.64 236 93.88"/></g><g class="cls-2"><g class="cls-2"><g class="cls-35"><g class="cls-2"><path d="M207.67,34.88,195,35.06a78.62,78.62,0,0,0-22.86-23A72.25,72.25,0,0,0,131.73.44L144.41.25a72.32,72.32,0,0,1,40.4,11.68,78.26,78.26,0,0,1,22.86,23"/></g></g></g><g class="cls-2"><g class="cls-36"><g class="cls-2"><path d="M143.19,0,130.51.22l1.22,0L144.41,0l-1.22,0"/></g></g></g><g class="cls-2"><g class="cls-37"><g class="cls-2"><path class="cls-8" d="M83.05,34.82,70.37,35A74.23,74.23,0,0,1,94.26,11.31l12.68-.18A74.33,74.33,0,0,0,83.05,34.82"/><path class="cls-38" d="M106.94,11.13l-12.68.18a73.68,73.68,0,0,1,21-8.75l12.68-.18a73.68,73.68,0,0,0-21,8.75"/><path class="cls-39" d="M127.94,2.38l-12.68.18,1.35-.32A73.57,73.57,0,0,1,130.52.47c.4,0,.81,0,1.21,0L144.41.25l-1.21,0a74.42,74.42,0,0,0-13.91,1.78l-1.35.32"/></g></g></g><g class="cls-2"><g class="cls-40"><g class="cls-2"><path d="M83.05,34.82,70.37,35A72.58,72.58,0,0,1,94.26,11l12.68-.18a72.58,72.58,0,0,0-23.89,24"/><path d="M106.94,10.86,94.26,11A73.3,73.3,0,0,1,115.2,2.32l12.68-.18a73.14,73.14,0,0,0-20.94,8.72"/><path d="M127.88,2.14l-12.68.18L116.56,2A74,74,0,0,1,130.51.22L143.19,0a73.2,73.2,0,0,0-13.95,1.78l-1.36.32"/></g></g></g><path class="cls-12" d="M184.81,11.93a74.11,74.11,0,0,1,22.61,23L83.05,34.82A73.6,73.6,0,0,1,129.29,2.06,74.42,74.42,0,0,1,143.2.28,72.18,72.18,0,0,1,184.81,11.93Z"/><path d="M143.19,0a72.42,72.42,0,0,1,41.75,11.68,74.34,74.34,0,0,1,22.73,23.16,78.26,78.26,0,0,0-22.86-23A72.18,72.18,0,0,0,143.2.28a74.42,74.42,0,0,0-13.91,1.78A73.6,73.6,0,0,0,83.05,34.82,73.34,73.34,0,0,1,143.19,0Z"/><polygon class="cls-5" points="207.42 34.94 194.74 35.13 70.37 35 83.05 34.82 207.42 34.94"/></g><g class="cls-2"><polygon class="cls-5" points="82.9 34.82 82.9 34.82 82.91 34.82 82.9 34.82"/><polygon class="cls-41" points="82.9 34.82 70.22 35 70.22 35 82.9 34.82 82.9 34.82"/><polygon class="cls-5" points="82.91 34.82 70.22 35 70.22 35 82.9 34.82 82.91 34.82"/></g></g></g></g></svg>